<?xml version="1.0" encoding="utf-8"?>
<!-- Svg Vector Icons : http://www.onlinewebfonts.com/icon -->
<!DOCTYPE svg PUBLIC "-//W3C//DTD SVG 1.1//EN" "http://www.w3.org/Graphics/SVG/1.1/DTD/svg11.dtd">
<svg version="1.1" xmlns="http://www.w3.org/2000/svg" xmlns:xlink="http://www.w3.org/1999/xlink" x="0px" y="0px" viewBox="0 0 1000 1000" enable-background="new 0 0 1000 1000" xml:space="preserve">
<metadata> Svg Vector Icons : http://www.onlinewebfonts.com/icon </metadata>
<g><g transform="translate(0.000000,512.000000) scale(0.100000,-0.100000)"><path d="M4552.9,5007.6c-606-55.6-1167.9-214.8-1716.4-487.1c-537-264.6-949.3-565.7-1361.6-989.5C851.7,2890.4,418.3,2096.5,211.2,1227.7l-11.5-53.7h1292.5h1292.5l24.9,63.3c13.4,32.6,82.5,147.7,153.4,253.1c354.8,533.1,901.3,897.5,1555.3,1037.5c224.4,49.9,728.7,47.9,955,0c646.3-140,1198.6-508.2,1551.4-1037.5c70.9-105.5,140-220.5,153.4-253.1l24.9-63.3h1292.5h1292.5l-11.5,53.7c-345.2,1451.7-1330.9,2677.1-2673.3,3319.6C6307.7,4927,5414,5088.1,4552.9,5007.6z"/><path d="M4735.1,2207.7c-498.6-67.1-1012.5-339.4-1323.2-701.9c-134.2-157.2-209-270.4-312.6-479.4c-44.1-86.3-90.1-163-103.6-172.6c-13.4-7.7-663.5-19.2-1444-24.9l-1419.1-9.6l-17.3-105.5c-7.7-57.5-15.3-326-15.3-594.5s7.7-537,15.3-594.5l17.3-105.5l1419.1-9.6c780.5-5.8,1430.6-17.2,1444-24.9c13.4-9.6,61.4-92,107.4-182.2C3571.1-1723.6,4587.5-2180,5565.5-1902c571.5,161.1,1041.3,554.2,1319.4,1104.6c46,92,101.6,176.4,120.8,187.9c24.9,13.4,504.4,19.2,1438.3,19.2h1401.9l9.6,44.1c59.4,262.7,59.4,1068.2,0,1332.8l-9.6,42.2H8444c-910.9,0-1413.3,7.7-1436.4,19.2c-21.1,11.5-80.5,105.5-134.2,209c-304.9,594.5-820.8,989.5-1463.2,1121.9C5222.2,2219.2,4907.7,2232.6,4735.1,2207.7z M5444.7,1816.5c295.3-80.5,682.7-322.2,864.9-538.9c180.3-216.7,316.4-475.6,383.5-726.8c51.8-189.8,51.8-673.1,0-863C6555-830,6202.2-1248,5715.1-1472.4c-257-118.9-381.6-143.8-721.1-143.8s-464.1,24.9-723,143.8c-389.3,180.3-663.5,448.7-849.5,830.4c-141.9,295.3-163,389.3-163,761.3c0,372,21.1,466,163,761.3c235.9,487.1,678.9,836.1,1208.2,955C4796.5,1872.1,5281.7,1862.5,5444.7,1816.5z"/><path d="M4769.6,1145.3C4374.6,1059,4052.4,733,3968,336c-51.8-239.7-21.1-464.1,90.1-692.3c84.4-172.6,287.7-375.9,460.3-460.3c421.9-207.1,886-130.4,1213.9,197.5c418.1,418.1,418.1,1058.6,0,1476.7C5471.5,1118.4,5124.4,1222,4769.6,1145.3z"/><path d="M211.2-987.2c331.8-1399.9,1258-2588.9,2529.5-3248.6c2222.6-1154.5,4947.7-446.8,6338.1,1645.4c326,490.9,563.8,1033.7,698,1603.2l11.5,51.8H8495.8H7203.2l-24.9-61.4c-42.2-99.7-234-379.7-349-510.1c-306.8-341.3-640.5-560-1073.9-703.8C4712.1-2557.8,3551.9-2151.3,2944-1225c-59.5,92-120.8,193.7-134.2,228.2l-24.9,61.4H1492.3H199.7L211.2-987.2z"/></g></g>
</svg>